<svg enable-background="new 0 0 888 204" viewBox="0 0 888 204" xmlns="http://www.w3.org/2000/svg"><path d="m834.22 31.29c-5.09.31-8.94 4.78-8.94 9.88v122.19c0 5.1 3.85 9.58 8.94 9.88 5.53.33 10.12-4.05 10.12-9.51v-122.93c0-5.46-4.59-9.85-10.12-9.51z"/><path d="m315.43 32.29c-4.76-2.38-10.55-.45-12.93 4.3l-53.25 106.41c-.02.04-.07.04-.09 0l-53.26-106.4c-2.38-4.76-8.17-6.69-12.93-4.3-4.76 2.38-6.69 8.17-4.3 12.93l61.41 122.71c1.69 3.37 5.09 5.33 8.63 5.33.16 0 .33-.02.5-.03.17.01.33.03.5.03 3.53 0 6.94-1.95 8.63-5.33l61.41-122.71c2.37-4.77.44-10.56-4.32-12.94z"/><path d="m622.14 32.24c-5.1.31-8.96 4.79-8.96 9.91v93.26c0 .05-.06.07-.09.03l-77.02-100.43c-2.95-3.84-8.4-4.96-12.72-2.24-2.83 1.77-4.41 5-4.41 8.33v122.23c0 5.11 3.86 9.6 8.96 9.91 5.54.33 10.14-4.06 10.14-9.53v-94.59c0-.05.06-.07.09-.03l77.01 100.43c1.84 2.4 4.67 3.74 7.58 3.74 1.81 0 3.66-.52 5.32-1.62 2.72-1.8 4.22-4.95 4.22-8.21v-121.65c.02-5.48-4.58-9.87-10.12-9.54z"/><path d="m787.17 31.27h-115.41c-5.1 0-9.58 3.85-9.88 8.94-.33 5.53 4.05 10.12 9.51 10.12h48.31c.03 0 .05.02.05.05v112.98c0 5.1 3.85 9.58 8.94 9.88 5.53.33 10.12-4.05 10.12-9.51v-113.35c0-.03.02-.05.05-.05h47.94c5.1 0 9.58-3.85 9.88-8.94.33-5.53-4.06-10.12-9.51-10.12z"/><path d="m125.02 36.59c-1.77-3.54-5.42-5.5-9.13-5.31-3.7-.19-7.35 1.78-9.11 5.31l-61.41 122.72c-2.38 4.76-.45 10.55 4.3 12.93 1.38.69 2.86 1.02 4.31 1.02 3.53 0 6.94-1.95 8.63-5.33l15.09-30.15c.01-.02.03-.03.05-.03h76.34c.02 0 .04.01.05.03l15.09 30.15c1.69 3.37 5.09 5.33 8.63 5.33 1.45 0 2.92-.33 4.31-1.02 4.76-2.38 6.69-8.17 4.3-12.93zm-40.05 86.64 30.88-61.71c.02-.04.07-.04.09 0l30.88 61.71c.02.03-.01.07-.05.07h-61.75c-.04 0-.06-.04-.05-.07z"/><path d="m489.97 160.21c-.11-.32-.25-.64-.4-.95l-56.55-114.27c-3.49-8.08-11.39-13.28-20.21-13.28-6.02 0-11.62 2.43-15.67 6.54l-13.9 26.45-33.35 70.24c-5.5 10.61-14.19 17.64-24.53 20.1l51.06-102.82c.1-.21.2-.42.28-.64.84-1.88 2.69-3.08 4.75-3.08.2 0 .39.02.58.04l8.4-14.94c-2.77-1.23-5.81-1.91-8.98-1.91-8.83 0-16.74 5.22-20.22 13.32l-56.61 113.99c-.09.16-.17.33-.25.5-.55 1.21-.82 2.5-.82 3.83 0 4.93 3.86 8.98 8.72 9.28 1.54.13 3.1.19 4.64.19 20.27 0 38.21-11.33 47.98-30.3.04-.08.08-.16.12-.24l31.82-67.02.01-.02.28-.59 9.32-19.57-.01-.03 1.4-2.95c.06-.12.11-.25.17-.37.81-1.95 2.7-3.2 4.81-3.2s4 1.26 4.81 3.21c.07.17.15.34.23.5l50.88 102.81c-10.27-2.47-18.91-9.49-24.41-20.09l-33.49-70.62-9.25 19.72 27.61 58.23c.04.08.08.17.12.25 9.92 19.26 27.36 30.3 47.84 30.3 1.62 0 3.25-.07 4.86-.21 1.02-.09 2.02-.36 2.94-.81 3.43-1.66 5.56-4.9 5.56-8.46.01-1.03-.17-2.09-.54-3.13z"/></svg>